<svg width="20" height="20" viewBox="0 0 20 20" fill="none" xmlns="http://www.w3.org/2000/svg">
<g clip-path="url(#clip0_4796_9485)">
<path d="M9.99984 1.66675C12.264 1.66675 12.5465 1.67508 13.4348 1.71675C14.3223 1.75841 14.9265 1.89758 15.4582 2.10425C16.0082 2.31591 16.4715 2.60258 16.9348 3.06508C17.3586 3.48166 17.6865 3.98557 17.8957 4.54175C18.1015 5.07258 18.2415 5.67758 18.2832 6.56508C18.3223 7.45341 18.3332 7.73592 18.3332 10.0001C18.3332 12.2642 18.3248 12.5467 18.2832 13.4351C18.2415 14.3226 18.1015 14.9267 17.8957 15.4584C17.6871 16.0149 17.3591 16.5189 16.9348 16.9351C16.5181 17.3587 16.0143 17.6865 15.4582 17.8959C14.9273 18.1017 14.3223 18.2417 13.4348 18.2834C12.5465 18.3226 12.264 18.3334 9.99984 18.3334C7.73567 18.3334 7.45317 18.3251 6.56484 18.2834C5.67734 18.2417 5.07317 18.1017 4.5415 17.8959C3.98511 17.6871 3.48111 17.3592 3.06484 16.9351C2.64101 16.5186 2.31311 16.0146 2.104 15.4584C1.89734 14.9276 1.75817 14.3226 1.7165 13.4351C1.67734 12.5467 1.6665 12.2642 1.6665 10.0001C1.6665 7.73592 1.67484 7.45341 1.7165 6.56508C1.75817 5.67675 1.89734 5.07341 2.104 4.54175C2.31253 3.98523 2.64051 3.48118 3.06484 3.06508C3.48123 2.64111 3.98519 2.31319 4.5415 2.10425C5.07317 1.89758 5.6765 1.75841 6.56484 1.71675C7.45317 1.67758 7.73567 1.66675 9.99984 1.66675ZM9.99984 5.83342C8.89477 5.83342 7.83496 6.2724 7.05356 7.0538C6.27216 7.83521 5.83317 8.89501 5.83317 10.0001C5.83317 11.1052 6.27216 12.165 7.05356 12.9464C7.83496 13.7278 8.89477 14.1667 9.99984 14.1667C11.1049 14.1667 12.1647 13.7278 12.9461 12.9464C13.7275 12.165 14.1665 11.1052 14.1665 10.0001C14.1665 8.89501 13.7275 7.83521 12.9461 7.0538C12.1647 6.2724 11.1049 5.83342 9.99984 5.83342ZM15.4165 5.62508C15.4165 5.34881 15.3068 5.08386 15.1114 4.88851C14.9161 4.69316 14.6511 4.58341 14.3748 4.58341C14.0986 4.58341 13.8336 4.69316 13.6383 4.88851C13.4429 5.08386 13.3332 5.34881 13.3332 5.62508C13.3332 5.90135 13.4429 6.1663 13.6383 6.36165C13.8336 6.557 14.0986 6.66675 14.3748 6.66675C14.6511 6.66675 14.9161 6.557 15.1114 6.36165C15.3068 6.1663 15.4165 5.90135 15.4165 5.62508ZM9.99984 7.50008C10.6629 7.50008 11.2988 7.76347 11.7676 8.23231C12.2364 8.70116 12.4998 9.33704 12.4998 10.0001C12.4998 10.6631 12.2364 11.299 11.7676 11.7678C11.2988 12.2367 10.6629 12.5001 9.99984 12.5001C9.3368 12.5001 8.70091 12.2367 8.23207 11.7678C7.76323 11.299 7.49984 10.6631 7.49984 10.0001C7.49984 9.33704 7.76323 8.70116 8.23207 8.23231C8.70091 7.76347 9.3368 7.50008 9.99984 7.50008Z" fill="white"/>
</g>
<defs>
<clipPath id="clip0_4796_9485">
<rect width="20" height="20" fill="white"/>
</clipPath>
</defs>
</svg>
